<svg width="44" height="44" viewBox="0 0 44 44" fill="none" xmlns="http://www.w3.org/2000/svg">
<path d="M5.81055 13.6387L21.9989 23.007L38.0772 13.6936" stroke="#009CDE" stroke-width="1.5" stroke-linecap="round" stroke-linejoin="round"/>
<path d="M21.998 39.6166V22.9883" stroke="#009CDE" stroke-width="1.5" stroke-linecap="round" stroke-linejoin="round"/>
<path d="M39.6175 16.811V27.1877C39.6175 27.2794 39.6175 27.3527 39.5992 27.4443C38.3158 26.326 36.6658 25.6661 34.8325 25.6661C33.1092 25.6661 31.5142 26.2711 30.2492 27.2794C28.5625 28.6177 27.4992 30.6894 27.4992 32.9994C27.4992 34.3744 27.8841 35.676 28.5625 36.776C28.7275 37.0694 28.9292 37.3444 29.1492 37.6011L25.7942 39.4528C23.7042 40.6261 20.2942 40.6261 18.2042 39.4528L8.41416 34.026C6.19583 32.7977 4.38086 29.7177 4.38086 27.1877V16.811C4.38086 14.281 6.19583 11.2011 8.41416 9.97272L18.2042 4.54602C20.2942 3.37268 23.7042 3.37268 25.7942 4.54602L35.5842 9.97272C37.8025 11.2011 39.6175 14.281 39.6175 16.811Z" stroke="#009CDE" stroke-width="1.5" stroke-linecap="round" stroke-linejoin="round"/>
<path d="M42.1667 32.9993C42.1667 35.1993 41.195 37.161 39.6734 38.4993C38.3717 39.636 36.685 40.3327 34.8333 40.3327C30.7817 40.3327 27.5 37.051 27.5 32.9993C27.5 30.6893 28.5633 28.6177 30.25 27.2794C31.515 26.271 33.11 25.666 34.8333 25.666C38.885 25.666 42.1667 28.9477 42.1667 32.9993Z" stroke="#009CDE" stroke-width="1.5" stroke-miterlimit="10" stroke-linecap="round" stroke-linejoin="round"/>
<path d="M35.2917 30.707V33.457L33 34.832" stroke="#009CDE" stroke-width="1.5" stroke-miterlimit="10" stroke-linecap="round" stroke-linejoin="round"/>
</svg>
