<svg width="65" height="64" viewBox="0 0 65 64" fill="none" xmlns="http://www.w3.org/2000/svg">
<rect x="0.332031" width="64" height="64" rx="32" fill="#004680"/>
<path d="M47.8616 22.1963L43.0632 17.4626C42.764 17.1658 42.3576 17 41.932 17H22.732C22.3064 17 21.9 17.1658 21.6008 17.4626L16.8024 22.1963C16.5112 22.4821 16.332 22.8768 16.332 23.3142V43.8421C16.332 45.5837 17.7672 47 19.532 47H45.132C46.8968 47 48.332 45.5837 48.332 43.8421V23.3142C48.332 22.8768 48.1528 22.4821 47.8616 22.1963ZM23.3944 20.1579H41.2696L42.868 21.7353H21.796L23.3944 20.1579ZM19.532 43.8421V24.8932H45.132L45.1352 43.8421H19.532Z" fill="white"/>
<path d="M37.132 33H27.532V30H24.332V36H40.332V30H37.132V33Z" fill="white"/>
</svg>
