<svg width="65" height="64" viewBox="0 0 65 64" fill="none" xmlns="http://www.w3.org/2000/svg">
<rect x="0.666016" width="64" height="64" rx="32" fill="#FE5E19"/>
<path d="M48.1956 22.1963L43.3972 17.4626C43.098 17.1658 42.6916 17 42.266 17H23.066C22.6404 17 22.234 17.1658 21.9348 17.4626L17.1364 22.1963C16.8452 22.4821 16.666 22.8768 16.666 23.3142V43.8421C16.666 45.5837 18.1012 47 19.866 47H45.466C47.2308 47 48.666 45.5837 48.666 43.8421V23.3142C48.666 22.8768 48.4868 22.4821 48.1956 22.1963ZM23.7284 20.1579H41.6036L43.202 21.7353H22.13L23.7284 20.1579ZM19.866 43.8421V24.8932H45.466L45.4692 43.8421H19.866Z" fill="white"/>
<path d="M37.466 33H27.866V30H24.666V36H40.666V30H37.466V33Z" fill="white"/>
</svg>
