<svg width="64" height="64" viewBox="0 0 64 64" fill="none" xmlns="http://www.w3.org/2000/svg">
<rect width="64" height="64" rx="32" fill="#757575"/>
<path d="M47.5296 22.1963L42.7312 17.4626C42.432 17.1658 42.0256 17 41.6 17H22.4C21.9744 17 21.568 17.1658 21.2688 17.4626L16.4704 22.1963C16.1792 22.4821 16 22.8768 16 23.3142V43.8421C16 45.5837 17.4352 47 19.2 47H44.8C46.5648 47 48 45.5837 48 43.8421V23.3142C48 22.8768 47.8208 22.4821 47.5296 22.1963ZM23.0624 20.1579H40.9376L42.536 21.7353H21.464L23.0624 20.1579ZM19.2 43.8421V24.8932H44.8L44.8032 43.8421H19.2Z" fill="white"/>
<path d="M36.8 33H27.2V30H24V36H40V30H36.8V33Z" fill="white"/>
</svg>
