<svg width="680" height="1117" viewBox="0 0 680 1117" fill="none" xmlns="http://www.w3.org/2000/svg">
<rect width="680" height="1117" fill="#003087"/>
<path d="M114.615 237.88C112.055 237.88 109.431 237.581 106.743 236.984C104.098 236.429 102.135 235.704 100.855 234.808C100.557 234.552 100.407 234.275 100.407 233.976C100.407 233.763 100.471 233.549 100.599 233.336L103.351 228.28C103.479 228.067 103.607 227.875 103.735 227.704C103.906 227.576 104.077 227.512 104.247 227.512C104.333 227.512 104.589 227.597 105.015 227.768C107.021 228.792 109.794 229.304 113.335 229.304C115.341 229.304 116.855 228.877 117.879 228.024C118.903 227.171 119.415 225.784 119.415 223.864C118.562 224.461 117.495 224.952 116.215 225.336C114.935 225.677 113.57 225.848 112.119 225.848C107.042 225.848 103.159 224.589 100.471 222.072C97.8259 219.555 96.5033 215.907 96.5033 211.128C96.5033 205.923 98.1246 201.997 101.367 199.352C104.61 196.664 109.41 195.32 115.767 195.32C118.967 195.32 122.018 195.768 124.919 196.664C127.821 197.56 130.231 198.691 132.151 200.056V220.472C132.151 225.677 130.658 229.88 127.671 233.08C124.685 236.28 120.333 237.88 114.615 237.88ZM114.935 216.824C118.007 216.824 119.543 215.352 119.543 212.408V204.664C118.647 204.28 117.154 204.088 115.063 204.088C113.186 204.088 111.757 204.557 110.775 205.496C109.837 206.435 109.367 208.12 109.367 210.552C109.367 212.728 109.815 214.328 110.711 215.352C111.607 216.333 113.015 216.824 114.935 216.824ZM180.613 227C179.375 227 178.501 226.744 177.989 226.232C177.477 225.72 177.221 224.909 177.221 223.8V198.264C177.221 197.496 177.349 196.984 177.605 196.728C177.903 196.429 178.501 196.28 179.397 196.28H185.989C186.501 196.28 186.885 196.365 187.141 196.536C187.439 196.664 187.61 196.92 187.653 197.304L187.973 199.16C190.533 196.6 193.626 195.32 197.253 195.32C198.661 195.32 199.813 195.448 200.709 195.704C201.605 195.917 202.415 196.28 203.141 196.792C203.567 197.091 203.781 197.432 203.781 197.816C203.781 197.944 203.738 198.179 203.653 198.52L201.605 204.344C201.434 204.941 201.114 205.24 200.645 205.24C200.431 205.24 200.175 205.155 199.877 204.984C198.725 204.344 197.338 204.024 195.717 204.024C194.095 204.024 192.751 204.472 191.685 205.368C190.661 206.264 190.149 207.459 190.149 208.952V223.8C190.149 224.909 189.893 225.72 189.381 226.232C188.911 226.744 188.058 227 186.821 227H180.613ZM211.201 193.016C209.75 193.016 208.641 192.632 207.873 191.864C207.105 191.053 206.721 190.115 206.721 189.048V187.512C206.721 186.403 207.105 185.464 207.873 184.696C208.641 183.885 209.75 183.48 211.201 183.48H215.809C217.302 183.48 218.433 183.885 219.201 184.696C219.969 185.464 220.353 186.403 220.353 187.512V189.048C220.353 190.115 219.969 191.053 219.201 191.864C218.433 192.632 217.302 193.016 215.809 193.016H211.201ZM210.433 227C209.195 227 208.321 226.744 207.809 226.232C207.297 225.72 207.041 224.909 207.041 223.8V199.544C207.041 198.435 207.297 197.624 207.809 197.112C208.321 196.557 209.195 196.28 210.433 196.28H216.577C217.814 196.28 218.689 196.557 219.201 197.112C219.755 197.624 220.033 198.435 220.033 199.544V223.8C220.033 224.909 219.755 225.72 219.201 226.232C218.689 226.744 217.814 227 216.577 227H210.433ZM240.694 227.96C234.678 227.96 229.707 226.851 225.782 224.632C224.971 224.12 224.566 223.672 224.566 223.288C224.566 223.075 224.672 222.755 224.886 222.328L227.574 217.528C227.83 217.016 228.15 216.76 228.534 216.76C228.79 216.76 229.152 216.888 229.622 217.144C230.816 217.784 232.331 218.381 234.166 218.936C236.043 219.448 237.707 219.704 239.158 219.704C240.523 219.704 241.504 219.576 242.102 219.32C242.699 219.021 242.998 218.552 242.998 217.912C242.998 217.315 242.571 216.824 241.718 216.44C240.907 216.013 239.414 215.48 237.238 214.84L235.83 214.456C232.288 213.389 229.728 212.173 228.15 210.808C226.571 209.443 225.782 207.501 225.782 204.984C225.782 201.869 227.126 199.48 229.814 197.816C232.502 196.152 236.107 195.32 240.63 195.32C243.446 195.32 245.899 195.576 247.99 196.088C250.08 196.6 252.086 197.368 254.006 198.392C254.774 198.819 255.158 199.288 255.158 199.8C255.158 200.099 255.03 200.483 254.774 200.952L252.15 205.112C251.851 205.581 251.552 205.816 251.254 205.816C250.998 205.816 250.656 205.688 250.23 205.432C249.206 204.877 248.011 204.429 246.646 204.088C245.28 203.747 243.958 203.576 242.678 203.576C239.734 203.576 238.262 204.216 238.262 205.496C238.262 206.093 238.731 206.605 239.67 207.032C240.651 207.416 242.144 207.843 244.15 208.312C244.619 208.44 245.259 208.611 246.07 208.824C246.923 209.037 247.627 209.251 248.182 209.464C250.23 210.189 251.808 210.936 252.918 211.704C254.027 212.429 254.816 213.304 255.286 214.328C255.755 215.309 255.99 216.568 255.99 218.104C255.99 219.939 255.435 221.603 254.326 223.096C253.216 224.547 251.51 225.72 249.206 226.616C246.902 227.512 244.064 227.96 240.694 227.96ZM263.613 227C262.375 227 261.501 226.744 260.989 226.232C260.477 225.72 260.221 224.909 260.221 223.8V198.264C260.221 197.496 260.349 196.984 260.605 196.728C260.903 196.429 261.501 196.28 262.397 196.28H268.477C268.989 196.28 269.373 196.365 269.629 196.536C269.927 196.664 270.098 196.92 270.141 197.304L270.461 199.288C271.655 198.051 272.999 197.091 274.493 196.408C275.986 195.683 277.735 195.32 279.741 195.32C281.533 195.32 283.069 195.64 284.349 196.28C285.629 196.92 286.717 197.901 287.613 199.224C288.765 197.987 290.087 197.027 291.581 196.344C293.117 195.661 294.951 195.32 297.085 195.32C300.37 195.32 302.93 196.28 304.765 198.2C306.599 200.077 307.517 202.936 307.517 206.776V223.8C307.517 224.909 307.261 225.72 306.749 226.232C306.237 226.744 305.362 227 304.125 227H298.941C297.703 227 296.829 226.744 296.317 226.232C295.805 225.72 295.549 224.909 295.549 223.8V207.608C295.549 206.371 295.314 205.475 294.845 204.92C294.418 204.365 293.757 204.088 292.861 204.088C291.837 204.088 291.026 204.429 290.429 205.112C289.874 205.752 289.597 206.669 289.597 207.864V223.8C289.597 224.909 289.341 225.72 288.829 226.232C288.317 226.744 287.442 227 286.205 227H281.533C280.295 227 279.421 226.744 278.909 226.232C278.397 225.72 278.141 224.909 278.141 223.8V207.48C278.141 205.219 277.266 204.088 275.517 204.088C274.45 204.088 273.618 204.429 273.021 205.112C272.423 205.795 272.125 206.733 272.125 207.928V223.8C272.125 224.909 271.869 225.72 271.357 226.232C270.887 226.744 270.034 227 268.797 227H263.613Z" fill="#0CFFFC"/>
<path d="M140.986 227C139.749 227 138.874 226.744 138.362 226.232C137.893 225.72 137.658 224.909 137.658 223.8V186.744C137.658 185.635 137.914 184.824 138.426 184.312C138.938 183.757 139.792 183.48 140.986 183.48H156.666C162.64 183.48 167.034 184.739 169.85 187.256C172.666 189.773 174.074 193.528 174.074 198.52C174.074 203.469 172.666 207.203 169.85 209.72C167.077 212.195 162.682 213.432 156.666 213.432H150.586V223.8C150.586 224.909 150.33 225.72 149.818 226.232C149.306 226.744 148.432 227 147.194 227H140.986ZM155.642 204.152C157.392 204.152 158.736 203.683 159.674 202.744C160.656 201.805 161.146 200.397 161.146 198.52C161.146 196.6 160.656 195.171 159.674 194.232C158.736 193.293 157.392 192.824 155.642 192.824H150.586V204.152H155.642Z" fill="white"/>
<path d="M101.366 282.8V293H98.4859V266.32H107.966C110.953 266.32 113.233 267.027 114.806 268.44C116.406 269.853 117.206 271.893 117.206 274.56C117.206 277.227 116.406 279.267 114.806 280.68C113.233 282.093 110.953 282.8 107.966 282.8H101.366ZM101.366 280.04H107.606C109.099 280.04 110.286 279.88 111.166 279.56C112.073 279.24 112.753 278.813 113.206 278.28C113.659 277.72 113.953 277.12 114.086 276.48C114.246 275.84 114.326 275.2 114.326 274.56C114.326 273.92 114.246 273.28 114.086 272.64C113.953 272 113.659 271.413 113.206 270.88C112.753 270.32 112.073 269.88 111.166 269.56C110.286 269.24 109.099 269.08 107.606 269.08H101.366V280.04ZM122.817 293V274.64C123.137 274.507 123.751 274.28 124.657 273.96C125.591 273.64 126.697 273.347 127.977 273.08C129.284 272.813 130.631 272.68 132.017 272.68C132.231 272.68 132.444 272.707 132.657 272.76C132.871 272.813 133.084 272.867 133.297 272.92V275.48C132.604 275.4 131.924 275.36 131.257 275.36C130.617 275.36 129.991 275.4 129.377 275.48C128.764 275.533 128.151 275.613 127.537 275.72C126.924 275.827 126.311 275.933 125.697 276.04V293H122.817ZM144.689 293.6C141.569 293.6 139.249 292.68 137.729 290.84C136.236 288.973 135.489 286.387 135.489 283.08C135.489 279.613 136.276 277.013 137.849 275.28C139.449 273.547 141.702 272.68 144.609 272.68C146.769 272.68 148.529 273.12 149.889 274C151.249 274.853 152.249 276.067 152.889 277.64C153.529 279.187 153.849 281 153.849 283.08C153.849 286.36 153.049 288.933 151.449 290.8C149.876 292.667 147.622 293.6 144.689 293.6ZM144.649 290.96C146.276 290.96 147.542 290.613 148.449 289.92C149.356 289.2 149.996 288.253 150.369 287.08C150.769 285.88 150.969 284.547 150.969 283.08C150.969 281.507 150.769 280.147 150.369 279C149.969 277.827 149.302 276.92 148.369 276.28C147.462 275.64 146.222 275.32 144.649 275.32C143.049 275.32 141.796 275.667 140.889 276.36C139.982 277.053 139.329 277.987 138.929 279.16C138.556 280.307 138.369 281.613 138.369 283.08C138.369 285.427 138.836 287.333 139.769 288.8C140.702 290.24 142.329 290.96 144.649 290.96ZM167.623 293.32C166.556 293.32 165.463 293.187 164.343 292.92C163.249 292.627 162.236 292.12 161.303 291.4C160.396 290.653 159.663 289.6 159.103 288.24C158.543 286.88 158.263 285.133 158.263 283C158.263 280.867 158.543 279.133 159.103 277.8C159.663 276.44 160.396 275.387 161.303 274.64C162.236 273.893 163.249 273.387 164.343 273.12C165.463 272.827 166.556 272.68 167.623 272.68C168.636 272.68 169.636 272.773 170.623 272.96C171.636 273.147 172.609 273.427 173.543 273.8V276.56C172.663 276.187 171.756 275.907 170.823 275.72C169.889 275.533 168.929 275.44 167.943 275.44C165.569 275.44 163.836 276.04 162.743 277.24C161.676 278.44 161.143 280.36 161.143 283C161.143 285.667 161.676 287.6 162.743 288.8C163.836 289.973 165.569 290.56 167.943 290.56C168.929 290.56 169.889 290.467 170.823 290.28C171.756 290.093 172.663 289.813 173.543 289.44V292.24C172.609 292.587 171.636 292.853 170.623 293.04C169.636 293.227 168.636 293.32 167.623 293.32ZM187.31 293.6C185.55 293.6 184.043 293.293 182.79 292.68C181.537 292.067 180.577 291.173 179.91 290C179.27 288.827 178.95 287.387 178.95 285.68V273.04H181.83V285.04C181.83 287.067 182.27 288.56 183.15 289.52C184.057 290.453 185.443 290.92 187.31 290.92C189.177 290.92 190.55 290.453 191.43 289.52C192.337 288.56 192.79 287.067 192.79 285.04V273.04H195.67V285.68C195.67 288.213 194.937 290.173 193.47 291.56C192.03 292.92 189.977 293.6 187.31 293.6ZM202.075 293V274.64C202.395 274.507 203.008 274.28 203.915 273.96C204.848 273.64 205.955 273.347 207.235 273.08C208.542 272.813 209.888 272.68 211.275 272.68C211.488 272.68 211.702 272.707 211.915 272.76C212.128 272.813 212.342 272.867 212.555 272.92V275.48C211.862 275.4 211.182 275.36 210.515 275.36C209.875 275.36 209.248 275.4 208.635 275.48C208.022 275.533 207.408 275.613 206.795 275.72C206.182 275.827 205.568 275.933 204.955 276.04V293H202.075ZM223.987 293.6C222.094 293.6 220.454 293.213 219.067 292.44C217.68 291.64 216.614 290.453 215.867 288.88C215.12 287.307 214.747 285.347 214.747 283C214.747 279.56 215.52 276.987 217.067 275.28C218.64 273.547 220.787 272.68 223.507 272.68C225.64 272.68 227.347 273.16 228.627 274.12C229.934 275.08 230.867 276.373 231.427 278C231.987 279.627 232.254 281.467 232.227 283.52H216.187L216.387 280.88H230.347L229.227 281.28C229.147 279.28 228.64 277.787 227.707 276.8C226.8 275.813 225.4 275.32 223.507 275.32C222.2 275.32 221.107 275.56 220.227 276.04C219.374 276.52 218.734 277.36 218.307 278.56C217.88 279.733 217.667 281.387 217.667 283.52C217.667 285.947 218.227 287.8 219.347 289.08C220.494 290.333 222.094 290.96 224.147 290.96C225.134 290.96 226.04 290.893 226.867 290.76C227.694 290.6 228.454 290.387 229.147 290.12C229.84 289.853 230.454 289.56 230.987 289.24V292.2C230.027 292.653 228.96 293 227.787 293.24C226.64 293.48 225.374 293.6 223.987 293.6ZM253.982 280V293H251.102V280C251.102 279.52 251.035 279.013 250.902 278.48C250.795 277.947 250.569 277.44 250.222 276.96C249.875 276.453 249.342 276.053 248.622 275.76C247.902 275.44 246.942 275.28 245.742 275.28C244.915 275.28 244.062 275.347 243.182 275.48C242.302 275.613 241.409 275.813 240.502 276.08V293H237.622V274.64C238.262 274.32 238.915 274.04 239.582 273.8C240.275 273.533 240.969 273.32 241.662 273.16C242.382 273 243.102 272.88 243.822 272.8C244.569 272.72 245.315 272.68 246.062 272.68C248.009 272.68 249.555 272.973 250.702 273.56C251.849 274.12 252.675 274.947 253.182 276.04C253.715 277.133 253.982 278.453 253.982 280ZM250.182 275.44C251.062 274.773 251.955 274.24 252.862 273.84C253.769 273.44 254.702 273.147 255.662 272.96C256.649 272.773 257.635 272.68 258.622 272.68C260.569 272.68 262.115 272.973 263.262 273.56C264.409 274.12 265.235 274.947 265.742 276.04C266.275 277.133 266.542 278.453 266.542 280V293H263.662V280C263.662 279.52 263.595 279.013 263.462 278.48C263.355 277.947 263.129 277.44 262.782 276.96C262.435 276.453 261.902 276.053 261.182 275.76C260.462 275.44 259.502 275.28 258.302 275.28C257.475 275.28 256.622 275.4 255.742 275.64C254.862 275.88 253.969 276.293 253.062 276.88L250.182 275.44ZM281.174 293.6C279.281 293.6 277.641 293.213 276.254 292.44C274.868 291.64 273.801 290.453 273.054 288.88C272.308 287.307 271.934 285.347 271.934 283C271.934 279.56 272.708 276.987 274.254 275.28C275.828 273.547 277.974 272.68 280.694 272.68C282.828 272.68 284.534 273.16 285.814 274.12C287.121 275.08 288.054 276.373 288.614 278C289.174 279.627 289.441 281.467 289.414 283.52H273.374L273.574 280.88H287.534L286.414 281.28C286.334 279.28 285.828 277.787 284.894 276.8C283.988 275.813 282.588 275.32 280.694 275.32C279.388 275.32 278.294 275.56 277.414 276.04C276.561 276.52 275.921 277.36 275.494 278.56C275.068 279.733 274.854 281.387 274.854 283.52C274.854 285.947 275.414 287.8 276.534 289.08C277.681 290.333 279.281 290.96 281.334 290.96C282.321 290.96 283.228 290.893 284.054 290.76C284.881 290.6 285.641 290.387 286.334 290.12C287.028 289.853 287.641 289.56 288.174 289.24V292.2C287.214 292.653 286.148 293 284.974 293.24C283.828 293.48 282.561 293.6 281.174 293.6ZM294.809 274.64C295.449 274.32 296.103 274.04 296.769 273.8C297.463 273.533 298.156 273.32 298.849 273.16C299.569 273 300.289 272.88 301.009 272.8C301.756 272.72 302.503 272.68 303.249 272.68C305.196 272.68 306.743 272.973 307.889 273.56C309.036 274.12 309.863 274.947 310.369 276.04C310.903 277.133 311.169 278.453 311.169 280V293H308.289V280C308.289 279.52 308.223 279.013 308.089 278.48C307.983 277.947 307.756 277.44 307.409 276.96C307.063 276.453 306.529 276.053 305.809 275.76C305.089 275.44 304.129 275.28 302.929 275.28C302.103 275.28 301.249 275.347 300.369 275.48C299.489 275.613 298.596 275.813 297.689 276.08V293H294.809V274.64ZM323.863 293.32C322.449 293.32 321.263 292.893 320.303 292.04C319.343 291.16 318.863 289.867 318.863 288.16V275.68H315.383V273.04H318.863V267.4H321.743V273.04H326.903V275.68H321.743V287.24C321.743 288.36 321.916 289.2 322.263 289.76C322.609 290.32 323.316 290.6 324.383 290.6C324.863 290.6 325.329 290.56 325.783 290.48C326.236 290.373 326.609 290.253 326.903 290.12V292.84C326.529 292.973 326.049 293.08 325.463 293.16C324.903 293.267 324.369 293.32 323.863 293.32ZM149.425 340.4C148.092 340.4 146.958 340.307 146.025 340.12C145.092 339.933 144.252 339.667 143.505 339.32C142.758 338.973 141.945 338.573 141.065 338.12V335C141.918 335.72 143.065 336.36 144.505 336.92C145.945 337.48 147.625 337.76 149.545 337.76C151.572 337.76 153.038 337.333 153.945 336.48C154.878 335.6 155.345 334.493 155.345 333.16C155.345 332.04 155.038 331.147 154.425 330.48C153.812 329.787 153.025 329.227 152.065 328.8C151.105 328.347 150.092 327.92 149.025 327.52C148.118 327.2 147.212 326.867 146.305 326.52C145.425 326.147 144.625 325.693 143.905 325.16C143.185 324.6 142.612 323.893 142.185 323.04C141.758 322.16 141.545 321.067 141.545 319.76C141.545 319.04 141.678 318.28 141.945 317.48C142.238 316.68 142.692 315.933 143.305 315.24C143.945 314.547 144.785 313.987 145.825 313.56C146.892 313.133 148.185 312.92 149.705 312.92C150.745 312.92 151.625 313 152.345 313.16C153.092 313.293 153.798 313.507 154.465 313.8C155.132 314.067 155.878 314.4 156.705 314.8V317.76C156.012 317.36 155.345 317 154.705 316.68C154.092 316.333 153.398 316.067 152.625 315.88C151.878 315.667 150.958 315.56 149.865 315.56C148.558 315.56 147.505 315.747 146.705 316.12C145.932 316.493 145.358 316.987 144.985 317.6C144.638 318.213 144.465 318.867 144.465 319.56C144.465 320.653 144.705 321.52 145.185 322.16C145.692 322.8 146.385 323.333 147.265 323.76C148.172 324.16 149.212 324.56 150.385 324.96C151.318 325.28 152.252 325.64 153.185 326.04C154.118 326.413 154.958 326.893 155.705 327.48C156.478 328.04 157.092 328.76 157.545 329.64C158.025 330.493 158.265 331.56 158.265 332.84C158.265 334.04 157.998 335.227 157.465 336.4C156.932 337.547 156.025 338.507 154.745 339.28C153.465 340.027 151.692 340.4 149.425 340.4ZM172.052 340.6C168.932 340.6 166.612 339.68 165.092 337.84C163.599 335.973 162.852 333.387 162.852 330.08C162.852 326.613 163.639 324.013 165.212 322.28C166.812 320.547 169.066 319.68 171.972 319.68C174.132 319.68 175.892 320.12 177.252 321C178.612 321.853 179.612 323.067 180.252 324.64C180.892 326.187 181.212 328 181.212 330.08C181.212 333.36 180.412 335.933 178.812 337.8C177.239 339.667 174.986 340.6 172.052 340.6ZM172.012 337.96C173.639 337.96 174.906 337.613 175.812 336.92C176.719 336.2 177.359 335.253 177.732 334.08C178.132 332.88 178.332 331.547 178.332 330.08C178.332 328.507 178.132 327.147 177.732 326C177.332 324.827 176.666 323.92 175.732 323.28C174.826 322.64 173.586 322.32 172.012 322.32C170.412 322.32 169.159 322.667 168.252 323.36C167.346 324.053 166.692 324.987 166.292 326.16C165.919 327.307 165.732 328.613 165.732 330.08C165.732 332.427 166.199 334.333 167.132 335.8C168.066 337.24 169.692 337.96 172.012 337.96ZM189.506 340H186.626V312.44H189.506V340ZM204.283 340.6C202.523 340.6 201.016 340.293 199.763 339.68C198.509 339.067 197.549 338.173 196.883 337C196.243 335.827 195.923 334.387 195.923 332.68V320.04H198.803V332.04C198.803 334.067 199.243 335.56 200.123 336.52C201.029 337.453 202.416 337.92 204.283 337.92C206.149 337.92 207.523 337.453 208.403 336.52C209.309 335.56 209.763 334.067 209.763 332.04V320.04H212.643V332.68C212.643 335.213 211.909 337.173 210.443 338.56C209.003 339.92 206.949 340.6 204.283 340.6ZM225.328 340.32C223.914 340.32 222.728 339.893 221.768 339.04C220.808 338.16 220.328 336.867 220.328 335.16V322.68H216.848V320.04H220.328V314.4H223.208V320.04H228.368V322.68H223.208V334.24C223.208 335.36 223.381 336.2 223.728 336.76C224.074 337.32 224.781 337.6 225.848 337.6C226.328 337.6 226.794 337.56 227.248 337.48C227.701 337.373 228.074 337.253 228.368 337.12V339.84C227.994 339.973 227.514 340.08 226.928 340.16C226.368 340.267 225.834 340.32 225.328 340.32ZM233.739 340V320.04H236.619V340H233.739ZM233.579 316.48V313.32H236.779V316.48H233.579ZM251.388 340.6C248.268 340.6 245.948 339.68 244.428 337.84C242.935 335.973 242.188 333.387 242.188 330.08C242.188 326.613 242.975 324.013 244.548 322.28C246.148 320.547 248.402 319.68 251.308 319.68C253.468 319.68 255.228 320.12 256.588 321C257.948 321.853 258.948 323.067 259.588 324.64C260.228 326.187 260.548 328 260.548 330.08C260.548 333.36 259.748 335.933 258.148 337.8C256.575 339.667 254.322 340.6 251.388 340.6ZM251.348 337.96C252.975 337.96 254.242 337.613 255.148 336.92C256.055 336.2 256.695 335.253 257.068 334.08C257.468 332.88 257.668 331.547 257.668 330.08C257.668 328.507 257.468 327.147 257.068 326C256.668 324.827 256.002 323.92 255.068 323.28C254.162 322.64 252.922 322.32 251.348 322.32C249.748 322.32 248.495 322.667 247.588 323.36C246.682 324.053 246.028 324.987 245.628 326.16C245.255 327.307 245.068 328.613 245.068 330.08C245.068 332.427 245.535 334.333 246.468 335.8C247.402 337.24 249.028 337.96 251.348 337.96ZM265.962 321.64C266.602 321.32 267.255 321.04 267.922 320.8C268.615 320.533 269.308 320.32 270.002 320.16C270.722 320 271.442 319.88 272.162 319.8C272.908 319.72 273.655 319.68 274.402 319.68C276.348 319.68 277.895 319.973 279.042 320.56C280.188 321.12 281.015 321.947 281.522 323.04C282.055 324.133 282.322 325.453 282.322 327V340H279.442V327C279.442 326.52 279.375 326.013 279.242 325.48C279.135 324.947 278.908 324.44 278.562 323.96C278.215 323.453 277.682 323.053 276.962 322.76C276.242 322.44 275.282 322.28 274.082 322.28C273.255 322.28 272.402 322.347 271.522 322.48C270.642 322.613 269.748 322.813 268.842 323.08V340H265.962V321.64Z" fill="white"/>
<g opacity="0.4">
<path d="M547.27 850.891C576.18 867.551 576.18 894.501 547.76 911.161L392.43 1001.32C364.01 1017.98 317.46 1017.98 288.55 1001.32L132.24 911.161C103.33 894.501 103.33 867.551 131.75 850.891L287.08 760.731C315.5 744.071 362.05 744.071 390.96 760.731L547.27 850.891Z" fill="#00357C" fill-opacity="0.4"/>
</g>
<path d="M569.32 835.211H110.68V851.381C110.68 862.161 118.03 872.941 132.24 881.271L288.55 971.431C317.46 988.091 364.01 988.091 392.43 971.431L547.76 881.271C561.97 872.941 569.32 862.161 569.32 851.381V835.211Z" fill="url(#paint0_linear_45_1006)"/>
<path d="M547.27 804.831C576.18 821.491 576.18 848.441 547.76 865.101L392.43 955.261C364.01 971.921 317.46 971.921 288.55 955.261L132.24 865.101C103.33 848.441 103.33 821.491 131.75 804.831L287.08 714.671C315.5 698.011 362.05 698.011 390.96 714.671L547.27 804.831Z" fill="#F3F8FE"/>
<path d="M507.58 810.71C531.1 823.94 531.1 845.99 508.07 859.22L382.14 932.23C359.11 945.46 321.38 945.46 297.86 932.23L171.44 859.22C147.92 845.99 147.92 823.94 170.95 810.71L297.37 737.7C320.4 724.47 358.13 724.47 381.65 737.7L507.58 810.71Z" stroke="#0CFFFC" stroke-width="0.5" stroke-miterlimit="10"/>
<path d="M492.881 706.34H186.631V825.9C186.631 833.25 191.531 840.6 201.331 845.99L305.701 906.26C324.811 917.53 356.171 917.53 375.281 906.26L479.161 845.99C488.471 840.6 493.371 833.25 493.371 825.9V706.34H492.881Z" fill="url(#paint1_linear_45_1006)"/>
<path d="M478.18 686.25C497.29 697.52 497.29 715.16 478.67 726.43L374.79 786.7C355.68 797.97 324.81 797.97 305.21 786.7L200.84 726.43C181.73 715.16 181.73 697.52 200.84 686.25L304.72 625.98C323.83 614.71 354.7 614.71 373.81 625.98L478.18 686.25Z" fill="#BCD0F1"/>
<path d="M339.51 618.141V620.591C352.25 620.591 364.01 623.531 372.83 628.431L477.2 688.701C485.53 693.601 490.43 699.971 490.43 706.831C490.43 713.691 486.02 720.061 477.2 724.471L373.32 784.741C364.5 790.131 352.74 792.581 340 792.581C327.26 792.581 315.5 789.641 306.68 784.741L202.31 724.471C193.98 719.571 189.08 713.201 189.08 706.341C189.08 699.481 193.49 693.111 202.31 688.211L306.19 627.941C315.01 622.551 326.77 620.101 339.51 620.101V618.141ZM339.51 618.141C326.77 618.141 314.52 621.081 304.72 626.471L200.84 686.741C181.73 698.011 181.73 715.651 200.84 726.921L305.7 786.701C315.5 792.091 327.75 795.031 340.49 795.031C353.23 795.031 365.48 792.091 375.28 786.701L479.16 726.431C498.27 715.161 498.27 697.521 478.67 686.251L374.3 625.981C364.5 620.591 351.76 618.141 339.51 618.141Z" fill="url(#paint2_linear_45_1006)"/>
<path d="M290.511 827.86C292.961 829.33 294.431 832.27 294.431 835.21V857.75C294.431 860.2 292.471 861.67 290.021 860.2L211.131 814.63C208.681 813.16 207.211 810.22 207.211 807.28V784.74C207.211 782.29 209.171 780.82 211.621 782.29L290.511 827.86Z" fill="#0CFFFC"/>
<path d="M294.431 857.75L215.541 812.18C213.091 810.71 211.621 807.77 211.621 804.83V782.29C209.661 781.31 207.701 782.29 207.701 784.74V807.28C207.701 809.73 209.661 813.16 211.621 814.63L290.511 860.2C292.961 861.67 294.921 860.69 294.431 857.75Z" fill="#1964BA"/>
<path d="M214.071 773.469L217.501 771.509C217.991 771.019 218.481 770.039 218.481 769.059C218.481 766.609 216.521 763.669 214.561 762.199C213.581 761.709 212.601 761.709 211.621 761.709L208.191 763.669L214.071 773.469Z" fill="url(#paint3_linear_45_1006)"/>
<path d="M214.241 773.269C215.65 772.461 215.591 769.713 214.11 767.131C212.629 764.549 210.287 763.11 208.878 763.918C207.47 764.726 207.529 767.474 209.01 770.056C210.491 772.638 212.833 774.077 214.241 773.269Z" fill="#2185F8"/>
<path d="M213.267 771.567C214.206 771.029 214.203 769.26 213.261 767.617C212.318 765.974 210.793 765.078 209.854 765.617C208.915 766.155 208.918 767.924 209.861 769.567C210.803 771.21 212.328 772.106 213.267 771.567Z" fill="#0CFFFC"/>
<path d="M230.243 782.289L233.673 780.329C234.163 779.839 234.653 778.859 234.653 777.879C234.653 775.429 232.693 772.489 230.733 771.019C229.753 770.529 228.773 770.529 227.793 770.529L224.363 772.489L230.243 782.289Z" fill="url(#paint4_linear_45_1006)"/>
<path d="M230.452 782.517C231.861 781.709 231.802 778.961 230.321 776.379C228.84 773.797 226.498 772.358 225.089 773.166C223.681 773.974 223.74 776.722 225.221 779.304C226.702 781.886 229.044 783.325 230.452 782.517Z" fill="#2185F8"/>
<path d="M229.476 780.817C230.415 780.278 230.412 778.51 229.47 776.867C228.528 775.224 227.002 774.328 226.063 774.867C225.125 775.405 225.127 777.174 226.07 778.817C227.012 780.46 228.537 781.356 229.476 780.817Z" fill="#FFE200"/>
<path d="M294.921 835.211C294.921 832.761 292.961 829.331 291.001 827.861L212.111 782.291C211.131 781.801 210.151 781.801 209.661 781.801L183.691 790.131C182.711 790.621 182.221 791.601 182.221 793.071V819.041C182.221 821.981 184.181 825.901 187.121 827.371L274.341 879.801C276.301 880.781 278.261 879.801 278.751 878.821C282.671 873.921 294.431 859.711 294.431 859.711C294.431 859.711 295.411 859.221 295.411 857.261L294.921 835.211Z" fill="url(#paint5_linear_45_1006)"/>
<path d="M229.75 669.59L403.21 770.53L403.7 889.6L454.17 919.98" stroke="#7AB6FB" stroke-width="0.25" stroke-miterlimit="10" stroke-linejoin="round"/>
<path d="M241.02 663.221L413.99 764.161L414.479 883.231L464.95 913.611" stroke="#7AB6FB" stroke-width="0.25" stroke-miterlimit="10" stroke-linejoin="round"/>
<path d="M251.801 656.85L425.261 757.79L425.751 876.86L475.731 907.24" stroke="#7AB6FB" stroke-width="0.25" stroke-miterlimit="10" stroke-linejoin="round"/>
<path d="M262.58 650.48L436.04 751.42L436.53 870.49L487 900.87" stroke="#7AB6FB" stroke-width="0.25" stroke-miterlimit="10" stroke-linejoin="round"/>
<path d="M273.85 644.109L446.82 745.049L447.8 864.609L497.779 894.499" stroke="#7AB6FB" stroke-width="0.25" stroke-miterlimit="10" stroke-linejoin="round"/>
<path d="M284.631 637.74L458.091 738.68L458.581 858.24L508.561 888.13" stroke="#7AB6FB" stroke-width="0.25" stroke-miterlimit="10" stroke-linejoin="round"/>
<path fill-rule="evenodd" clip-rule="evenodd" d="M312.56 641.661C311.58 640.191 311.09 638.721 311.09 637.251V542.191C311.09 539.251 315.01 537.781 316.97 539.251L435.06 607.361C437.51 608.831 439.47 612.261 439.47 614.711V709.77C439.47 711.73 437.51 714.18 435.55 713.69" fill="#DCE7F2"/>
<path fill-rule="evenodd" clip-rule="evenodd" d="M435.06 714.671V718.591C435.06 719.571 434.57 720.061 433.59 720.551L362.54 761.711C360.58 762.691 356.66 762.691 354.21 761.221L236.12 693.111C233.67 691.641 232.69 685.271 235.14 683.801" fill="#DCE7F2"/>
<path fill-rule="evenodd" clip-rule="evenodd" d="M312.56 642.15C311.58 640.68 311.09 639.21 311.09 637.74V542.68C311.09 539.74 313.05 538.76 315.5 540.23L433.59 608.34C436.04 609.81 438 613.24 438 615.69V710.75C438 712.71 436.53 714.18 435.06 713.69" fill="url(#paint6_linear_45_1006)"/>
<path fill-rule="evenodd" clip-rule="evenodd" d="M434.57 653.421V618.141C434.57 617.651 434.08 617.161 433.59 616.671L316.48 549.541C315.99 549.051 315.5 549.541 315.5 550.031V642.151C315.5 642.641 315.99 643.131 316.48 643.621L433.59 711.241C434.08 711.731 434.57 711.241 434.57 710.751V653.421Z" fill="#1964BA"/>
<path fill-rule="evenodd" clip-rule="evenodd" d="M280.711 713.69L236.611 688.21C234.161 686.74 233.671 684.78 236.121 683.31L307.171 642.15C309.131 641.17 313.051 641.17 315.501 642.64L433.591 710.75C436.041 712.22 436.531 714.18 434.081 715.65L363.03 756.81C361.07 757.79 357.151 757.79 354.701 756.32L312.561 731.82" fill="url(#paint7_linear_45_1006)"/>
<path opacity="0.2" fill-rule="evenodd" clip-rule="evenodd" d="M283.65 706.83L322.36 729.37C323.34 729.86 324.81 729.86 325.79 729.37L343.43 719.08C344.41 718.59 344.41 717.61 343.92 717.12L305.21 694.58C304.23 694.09 302.76 694.09 301.78 694.58L284.14 704.87C282.67 705.85 282.67 706.34 283.65 706.83Z" fill="#004680"/>
<path d="M289.529 719.57L309.619 731.33C310.109 731.82 311.089 731.82 311.579 731.82H312.069C312.069 731.33 311.579 730.84 311.089 730.35L283.649 714.67C283.159 714.18 282.179 714.18 281.689 714.18H281.199C281.199 714.67 281.689 715.16 282.179 715.65L283.159 716.14L287.079 718.59L288.059 719.08L289.529 719.57Z" fill="url(#paint8_linear_45_1006)"/>
<path opacity="0.2" fill-rule="evenodd" clip-rule="evenodd" d="M384.59 734.271L378.709 730.841C378.219 730.841 378.219 730.351 378.709 730.351L380.669 729.371C381.159 729.371 381.649 729.371 381.649 729.371L387.529 732.801C388.019 732.801 388.019 733.291 387.529 733.291L385.569 734.271C385.569 734.271 385.079 734.271 384.59 734.271ZM385.569 725.451L377.729 721.04C377.239 721.04 377.239 720.551 377.729 720.551L383.119 717.611C383.609 717.611 384.099 717.611 384.099 717.611L397.819 725.451C398.309 725.451 398.309 725.941 397.819 725.941L392.429 728.881C391.939 728.881 391.449 728.881 391.449 728.881L387.529 726.431M399.29 724.471L388.999 718.59C388.509 718.59 388.509 718.101 388.999 718.101L394.39 715.161C394.88 715.161 395.369 715.161 395.369 715.161L405.659 721.04C406.149 721.04 406.149 721.531 405.659 721.531L400.269 724.471C400.269 724.961 399.78 724.961 399.29 724.471ZM407.129 720.061L401.74 717.12C401.25 717.12 401.25 716.631 401.74 716.631L407.129 713.69C407.619 713.69 408.109 713.69 408.109 713.69L413.499 716.631C413.989 716.631 413.989 717.12 413.499 717.12L408.109 720.061C408.109 720.061 407.619 720.061 407.129 720.061ZM399.29 715.651L393.899 712.711C393.409 712.711 393.409 712.22 393.899 712.22L399.29 709.281C399.78 709.281 400.269 709.281 400.269 709.281L405.659 712.22C406.149 712.22 406.149 712.711 405.659 712.711L400.269 715.651C400.269 715.651 399.78 715.651 399.29 715.651ZM388.999 709.281L386.059 707.811C385.569 707.811 385.569 707.32 386.059 707.32L391.449 704.381C391.939 704.381 392.429 704.381 392.429 704.381L397.819 707.32C398.309 707.32 398.309 707.811 397.819 707.811L392.429 710.75C391.939 710.75 391.449 710.75 391.449 710.75M383.609 706.34L378.219 703.4C377.729 703.4 377.729 702.911 378.219 702.911L383.119 699.97C383.609 699.97 384.099 699.97 384.099 699.97L389.49 702.911C389.979 702.911 389.979 703.4 389.49 703.4L384.099 706.34C384.589 706.34 384.099 706.34 383.609 706.34ZM375.769 701.931L370.379 698.99C369.889 698.99 369.889 698.5 370.379 698.5L375.279 695.561C375.769 695.561 376.259 695.561 376.259 695.561L381.649 698.5C382.139 698.5 382.139 698.99 381.649 698.99L376.749 701.931C376.749 701.931 376.259 701.931 375.769 701.931ZM367.929 697.52L362.539 694.58C362.049 694.58 362.049 694.09 362.539 694.09L367.439 691.15C367.929 691.15 368.419 691.15 368.419 691.15L373.809 694.09C374.299 694.09 374.299 694.58 373.809 694.58L368.909 697.52C368.909 697.52 368.419 697.52 367.929 697.52ZM360.089 692.62L354.699 689.68C354.209 689.68 354.209 689.19 354.699 689.19L359.599 686.25C360.089 686.25 360.579 686.25 360.579 686.25L365.969 689.19C366.459 689.19 366.459 689.68 365.969 689.68L361.069 692.62C361.069 693.11 360.579 693.11 360.089 692.62ZM352.249 688.21L346.859 685.27C346.369 685.27 346.369 684.78 346.859 684.78L351.759 681.84C352.249 681.84 352.739 681.84 352.739 681.84L358.129 684.78C358.619 684.78 358.619 685.27 358.129 685.27L353.229 688.21C353.229 688.7 352.739 688.7 352.249 688.21ZM344.409 683.8L339.019 680.86C338.529 680.86 338.529 680.37 339.019 680.37L343.919 677.43C344.409 677.43 344.899 677.43 344.899 677.43L350.289 680.37C350.779 680.37 350.779 680.86 350.289 680.86L345.389 683.8C345.389 683.8 344.899 683.8 344.409 683.8ZM338.039 679.39C337.549 679.39 337.059 679.39 337.059 679.39L331.669 676.45C331.179 676.45 331.179 675.96 331.669 675.96L336.569 673.02C337.059 673.02 337.549 673.02 337.549 673.02L342.939 675.96C343.429 675.96 343.429 676.45 342.939 676.45L338.039 679.39ZM330.199 674.98C329.709 674.98 329.219 674.98 329.219 674.98L323.829 672.04C323.339 672.04 323.339 671.55 323.829 671.55L328.729 668.61C329.219 668.61 329.709 668.61 329.709 668.61L335.099 671.55C335.589 671.55 335.589 672.04 335.099 672.04L330.199 674.98ZM322.359 670.57C321.869 670.57 321.379 670.57 321.379 670.57L316.479 667.63C315.989 667.63 315.989 667.14 316.479 667.14L321.379 664.2C321.869 664.2 322.359 664.2 322.359 664.2L327.749 667.14C328.239 667.14 328.239 667.63 327.749 667.63L322.359 670.57ZM314.519 666.16C314.029 666.16 313.539 666.16 313.539 666.16L308.639 663.22C308.639 663.22 308.149 662.73 308.639 662.73L313.539 659.79C314.029 659.79 314.519 659.79 314.519 659.79L319.419 662.73C319.909 662.73 319.909 663.22 319.419 663.22L314.519 666.16ZM307.169 661.26C306.679 661.26 306.189 661.26 306.189 661.26L298.349 656.85C298.349 656.85 297.859 656.36 298.349 656.36L303.249 653.42C303.739 653.42 304.229 653.42 304.229 653.42L312.069 657.83C312.559 657.83 312.559 658.32 312.069 658.32L307.169 661.26ZM414.969 715.651L409.579 712.711C409.089 712.711 409.089 712.22 409.579 712.22L412.519 710.75C413.009 710.75 413.499 710.75 413.499 710.75L418.89 713.69C419.38 713.69 419.38 714.181 418.89 714.181L415.949 715.651C415.949 715.651 415.459 715.651 414.969 715.651ZM407.129 710.75L401.74 707.811C401.25 707.811 401.25 707.32 401.74 707.32L404.679 705.85C405.169 705.85 405.659 705.85 405.659 705.85L411.049 708.79C411.539 708.79 411.539 709.281 411.049 709.281L408.109 710.75C408.109 711.241 407.619 711.241 407.129 710.75ZM399.29 706.34L393.899 703.4C393.409 703.4 393.409 702.911 393.899 702.911L396.84 701.44C397.33 701.44 397.819 701.44 397.819 701.44L403.209 704.381C403.699 704.381 403.699 704.87 403.209 704.87L400.269 706.34C400.269 706.34 399.78 706.34 399.29 706.34ZM391.449 701.931L386.059 698.99C385.569 698.99 385.569 698.5 386.059 698.5L388.999 697.03C389.489 697.03 389.979 697.03 389.979 697.03L395.369 699.97C395.859 699.97 395.859 700.461 395.369 700.461L392.429 701.931C392.429 701.931 391.939 701.931 391.449 701.931ZM383.609 697.52L378.219 694.58C377.729 694.58 377.729 694.09 378.219 694.09L381.159 692.62C381.649 692.62 382.139 692.62 382.139 692.62L387.529 695.561C388.019 695.561 388.019 696.05 387.529 696.05L384.59 697.52C384.59 697.52 384.099 697.52 383.609 697.52ZM375.769 692.62L370.379 689.68C369.889 689.68 369.889 689.19 370.379 689.19L373.319 687.72C373.809 687.72 374.299 687.72 374.299 687.72L379.689 690.66C380.179 690.66 380.179 691.15 379.689 691.15L376.749 692.62C376.749 693.11 376.259 693.11 375.769 692.62ZM367.929 688.21L362.539 685.27C362.049 685.27 362.049 684.78 362.539 684.78L365.479 683.31C365.969 683.31 366.459 683.31 366.459 683.31L371.849 686.25C372.339 686.25 372.339 686.74 371.849 686.74L368.909 688.21C368.909 688.7 368.419 688.7 367.929 688.21ZM360.089 683.8L354.699 680.86C354.209 680.86 354.209 680.37 354.699 680.37L357.639 678.9C358.129 678.9 358.619 678.9 358.619 678.9L364.009 681.84C364.499 681.84 364.499 682.33 364.009 682.33L361.559 683.8C361.069 683.8 360.579 683.8 360.089 683.8ZM352.249 679.39L346.859 676.45C346.369 676.45 346.369 675.96 346.859 675.96L349.799 674.49C350.289 674.49 350.779 674.49 350.779 674.49L356.169 677.43C356.659 677.43 356.659 677.92 356.169 677.92L353.229 679.39C353.229 679.39 352.739 679.39 352.249 679.39ZM345.879 674.98C345.389 674.98 344.899 674.98 344.899 674.98L339.509 672.04C339.019 672.04 339.019 671.55 339.509 671.55L342.449 670.08C342.939 670.08 343.429 670.08 343.429 670.08L348.819 673.02C349.309 673.02 349.309 673.51 348.819 673.51L345.879 674.98ZM338.039 670.57C337.549 670.57 337.059 670.57 337.059 670.57L331.669 667.63C331.179 667.63 331.179 667.14 331.669 667.14L334.609 665.67C335.099 665.67 335.589 665.67 335.589 665.67L340.979 668.61C341.469 668.61 341.469 669.1 340.979 669.1L338.039 670.57ZM330.199 665.67C329.709 665.67 329.219 665.67 329.219 665.67L324.319 662.73C323.829 662.73 323.829 662.24 324.319 662.24L326.769 660.77C327.259 660.77 327.749 660.77 327.749 660.77L333.139 663.71C333.629 663.71 333.629 664.2 333.139 664.2L330.199 665.67ZM322.359 661.26C321.869 661.26 321.379 661.26 321.379 661.26L316.479 658.32C315.989 658.32 315.989 657.83 316.479 657.83L318.929 656.36C319.419 656.36 319.909 656.36 319.909 656.36L324.809 659.3C325.299 659.3 325.299 659.79 324.809 659.79L322.359 661.26ZM315.009 656.85C314.519 656.85 314.029 656.85 314.029 656.85L306.189 652.44C306.189 652.44 305.699 651.95 306.189 651.95L308.639 650.48C309.129 650.48 309.619 650.48 309.619 650.48L317.459 654.89C317.949 654.89 317.949 655.38 317.459 655.38L315.009 656.85ZM307.169 664.2C307.659 664.2 307.659 664.69 307.169 664.69L302.269 667.63C301.779 667.63 301.289 667.63 301.289 667.63L290.509 661.26C290.509 661.26 290.019 660.77 290.509 660.77L295.409 657.83C295.899 657.83 296.389 657.83 296.389 657.83L307.169 664.2ZM303.249 671.06C303.739 671.06 303.739 671.55 303.249 671.55L298.349 674.49C297.859 674.49 297.369 674.49 297.369 674.49L282.669 666.16C282.669 666.16 282.179 665.67 282.669 665.67L287.569 662.73C288.059 662.73 288.549 662.73 288.549 662.73L303.249 671.06ZM286.099 669.59C286.099 670.08 286.099 670.08 286.099 669.59C286.099 670.08 286.099 670.08 286.099 670.08L281.199 673.02C280.709 673.02 280.219 673.02 280.219 673.02L275.319 670.08C275.319 670.08 274.829 669.59 275.319 669.59L280.219 666.65C280.709 666.65 281.199 666.65 281.199 666.65L286.099 669.59ZM287.079 671.06C287.569 671.06 288.059 671.06 288.059 671.06L292.959 674C292.959 674 293.449 674.49 292.959 674.49L288.059 677.43C287.569 677.43 287.079 677.43 287.079 677.43L282.179 674.49C282.179 674.49 281.689 674 282.179 674L287.079 671.06ZM294.919 675.96C295.409 675.96 295.899 675.96 295.899 675.96L302.269 679.88C302.759 679.88 302.759 680.37 302.269 680.37L297.369 683.31C296.879 683.31 296.389 683.31 296.389 683.31L290.019 679.39C289.529 679.39 289.529 678.9 290.019 678.9L294.919 675.96ZM308.639 672.04L303.739 669.1C303.249 669.1 303.249 668.61 303.739 668.61L308.639 665.67C309.129 665.67 309.619 665.67 309.619 665.67L314.519 668.61C315.009 668.61 315.009 669.1 314.519 669.1L309.619 672.04C309.619 672.53 309.129 672.53 308.639 672.04ZM299.819 675.47L304.719 672.53C305.209 672.53 305.699 672.53 305.699 672.53L310.599 675.47C311.089 675.47 311.089 675.96 310.599 675.96L305.699 678.9C305.209 678.9 304.719 678.9 304.719 678.9L299.819 675.96C299.329 675.96 299.329 675.47 299.819 675.47ZM304.229 680.86C304.719 680.86 305.209 680.86 305.209 680.86L312.559 685.27C313.049 685.27 313.049 685.76 312.559 685.76L307.659 688.7C307.169 688.7 306.679 688.7 306.679 688.7L299.329 684.29C298.839 684.29 298.839 683.8 299.329 683.8L304.229 680.86ZM324.319 674.49C324.809 674.49 325.299 674.49 325.299 674.49L330.689 677.43C331.179 677.43 331.179 677.92 330.689 677.92L325.789 680.86C325.299 680.86 324.809 680.86 324.809 680.86L319.419 677.92C318.929 677.92 318.929 677.43 319.419 677.43L324.319 674.49ZM316.479 676.45L311.579 673.51C311.089 673.51 311.089 673.02 311.579 673.02L316.479 670.08C316.969 670.08 317.459 670.08 317.459 670.08L322.359 673.02C322.849 673.02 322.849 673.51 322.359 673.51L317.459 676.45C317.459 676.94 316.969 676.94 316.479 676.45ZM318.929 680.37L314.029 683.31C313.539 683.31 313.049 683.31 313.049 683.31L308.149 680.37C307.659 680.37 307.659 679.88 308.149 679.88L313.049 676.94C313.539 676.94 314.029 676.94 314.029 676.94L318.929 679.88V680.37ZM315.009 684.29L319.909 681.35C320.399 681.35 320.889 681.35 320.889 681.35L326.279 684.29C326.769 684.29 326.769 684.78 326.279 684.78L321.379 687.72C320.889 687.72 320.399 687.72 320.399 687.72L315.499 684.78C315.009 684.78 315.009 684.29 315.009 684.29ZM314.519 686.74C315.009 686.74 315.499 686.74 315.499 686.74L348.329 705.85C348.819 705.85 348.819 706.34 348.329 706.34L343.429 709.281C342.939 709.281 342.449 709.281 342.449 709.281L309.619 690.17C309.129 690.17 309.129 689.68 309.619 689.68L314.519 686.74ZM356.169 692.62L361.559 695.561C362.049 695.561 362.049 696.05 361.559 696.05L356.659 698.99C356.169 698.99 355.679 698.99 355.679 698.99L350.289 696.05C349.799 696.05 349.799 695.561 350.289 695.561L355.189 692.62C355.679 692.13 356.169 692.13 356.169 692.62ZM349.799 698.5L344.899 701.44C344.409 701.44 343.919 701.44 343.919 701.44L338.529 698.5C338.039 698.5 338.039 698.011 338.529 698.011L343.429 695.07C343.919 695.07 344.409 695.07 344.409 695.07L349.799 698.011C350.289 698.011 350.289 698.5 349.799 698.5ZM348.819 687.72L354.209 690.66C354.699 690.66 354.699 691.15 354.209 691.15L349.309 694.09C348.819 694.09 348.329 694.09 348.329 694.09L342.939 691.15C342.449 691.15 342.449 690.66 342.939 690.66L347.839 687.72C347.839 687.72 348.329 687.72 348.819 687.72ZM341.959 694.09L337.059 697.03C336.569 697.03 336.079 697.03 336.079 697.03L330.689 694.09C330.199 694.09 330.199 693.6 330.689 693.6L335.589 690.66C336.079 690.66 336.569 690.66 336.569 690.66L341.959 693.6C342.449 693.6 342.449 693.6 341.959 694.09ZM339.509 683.31C339.999 683.31 340.489 683.31 340.489 683.31L345.879 686.25C346.369 686.25 346.369 686.74 345.879 686.74L340.979 689.68C340.489 689.68 339.999 689.68 339.999 689.68L334.609 686.74C334.119 686.74 334.119 686.25 334.609 686.25L339.509 683.31ZM332.159 685.76L326.769 682.82C326.279 682.82 326.279 682.33 326.769 682.33L331.669 679.39C332.159 679.39 332.649 679.39 332.649 679.39L338.039 682.33C338.529 682.33 338.529 682.82 338.039 682.82L333.139 685.76C332.649 685.76 332.159 685.76 332.159 685.76ZM334.119 689.68L329.219 692.62C328.729 692.62 328.239 692.62 328.239 692.62L322.849 689.68C322.359 689.68 322.359 689.19 322.849 689.19L327.749 686.25C328.239 686.25 328.729 686.25 328.729 686.25L334.119 689.19C334.609 689.19 334.609 689.19 334.119 689.68ZM346.369 702.42L351.269 699.48C351.759 699.48 352.249 699.48 352.249 699.48L357.639 702.42C358.129 702.42 358.129 702.911 357.639 702.911L352.739 705.85C352.249 705.85 351.759 705.85 351.759 705.85L346.369 702.911C345.879 702.911 345.879 702.42 346.369 702.42ZM351.269 707.32L358.619 711.731C359.109 711.731 359.109 712.22 358.619 712.22L353.719 715.161C353.229 715.161 352.739 715.161 352.739 715.161L345.389 710.75C344.899 710.75 344.899 710.261 345.389 710.261L350.289 707.32C350.289 707.32 350.779 707.32 351.269 707.32ZM371.849 701.44L377.239 704.381C377.729 704.381 377.729 704.87 377.239 704.87L372.339 707.811C371.849 707.811 371.359 707.811 371.359 707.811L365.969 704.87C365.479 704.87 365.479 704.381 365.969 704.381L370.869 701.44C371.359 701.44 371.849 701.44 371.849 701.44ZM358.129 700.461C357.639 700.461 357.639 699.97 358.129 699.97L363.029 697.03C363.519 697.03 364.009 697.03 364.009 697.03L369.399 699.97C369.889 699.97 369.889 700.461 369.399 700.461L364.499 703.4C364.009 703.4 363.519 703.4 363.519 703.4L358.129 700.461ZM365.479 707.32L360.579 710.261C360.089 710.261 359.599 710.261 359.599 710.261L354.209 707.32C353.719 707.32 353.719 706.831 354.209 706.831L359.109 703.89C359.599 703.89 360.089 703.89 360.089 703.89L365.479 706.831C365.969 706.831 365.969 707.32 365.479 707.32ZM366.949 708.3C367.439 708.3 367.929 708.3 367.929 708.3L373.319 711.24C373.809 711.24 373.809 711.731 373.319 711.731L368.419 714.671C367.929 714.671 367.439 714.671 367.439 714.671L362.049 711.731C361.559 711.731 361.559 711.24 362.049 711.24L366.949 708.3ZM361.069 713.201L366.459 716.631C366.949 716.631 366.949 717.12 366.459 717.12L361.559 720.061C361.069 720.061 360.579 720.061 360.579 720.061L355.189 716.631C354.699 716.631 354.699 716.14 355.189 716.14L360.089 713.201C360.579 713.201 360.579 713.201 361.069 713.201ZM373.319 709.77C372.829 709.77 372.829 709.281 373.319 709.281L378.219 706.34C378.709 706.34 379.199 706.34 379.199 706.34L384.59 709.281C385.079 709.281 385.079 709.77 384.59 709.77L379.199 712.711C378.709 712.711 378.219 712.711 378.219 712.711L373.319 709.77ZM381.159 713.69L386.549 710.75C387.039 710.75 387.529 710.75 387.529 710.75L392.919 713.69C393.409 713.69 393.409 714.181 392.919 714.181L387.529 717.12C387.039 717.12 386.549 717.12 386.549 717.12L381.159 714.181V713.69ZM374.789 719.571L369.399 716.631C368.909 716.631 368.909 716.14 369.399 716.14L374.299 713.201C374.789 713.201 375.279 713.201 375.279 713.201L380.669 716.14C381.159 716.14 381.159 716.631 380.669 716.631L375.769 719.571C375.769 719.571 375.279 719.571 374.789 719.571ZM365.969 720.061L371.359 723.491C371.849 723.491 371.849 723.981 371.359 723.981L369.889 724.961C369.399 724.961 368.909 724.961 368.909 724.961L363.519 721.531C363.029 721.531 363.029 721.04 363.519 721.04L364.989 720.061C364.989 720.061 365.479 720.061 365.969 720.061ZM377.729 722.511L383.119 725.941C383.609 725.941 383.609 726.431 383.119 726.431L381.649 727.411C381.159 727.411 380.669 727.411 380.669 727.411L375.279 723.981C374.789 723.981 374.789 723.491 375.279 723.491L376.749 722.511C376.749 722.511 377.239 722.511 377.729 722.511ZM373.809 724.961L379.199 728.391C379.689 728.391 379.689 728.881 379.199 728.881L377.729 729.861C377.239 729.861 376.749 729.861 376.749 729.861L371.359 726.431C370.869 726.431 370.869 725.941 371.359 725.941L372.829 724.961C372.829 724.471 373.319 724.471 373.809 724.961Z" fill="#004680"/>
<path opacity="0.3" d="M415.461 721.04L305.211 657.83C303.251 656.85 301.781 654.4 301.781 652.44L301.291 561.3C301.291 559.34 302.761 558.85 304.721 559.83L414.971 623.04C416.931 624.02 418.401 626.47 418.401 628.43L418.891 719.08C419.381 721.04 417.421 722.02 415.461 721.04Z" fill="white"/>
<path opacity="0.3" d="M420.85 716.14L310.6 652.93C308.64 651.95 307.17 649.5 307.17 647.54L306.68 556.89C306.68 554.93 308.15 554.44 310.11 555.42L420.36 618.63C422.32 619.61 423.79 622.06 423.79 624.02L424.28 714.67C424.77 716.63 422.81 717.12 420.85 716.14Z" fill="white"/>
<path opacity="0.8" d="M410.07 725.593L299.82 662.383C297.86 661.403 296.39 658.953 296.39 656.993L295.9 566.343C295.9 564.383 297.37 563.893 299.33 564.873L409.58 628.083C411.54 629.063 413.01 631.513 413.01 633.473L413.5 724.123C413.5 726.083 412.03 726.573 410.07 725.593Z" fill="white"/>
<path d="M299.33 564.383C297.37 563.403 295.9 563.893 295.9 565.853V575.653L413.5 643.273V632.983C413.5 631.513 412.52 629.553 410.56 628.083L364.5 601.623L299.33 564.383Z" fill="url(#paint9_linear_45_1006)"/>
<path d="M301.454 574.109C302.103 573.621 301.97 572.348 301.156 571.267C300.343 570.186 299.158 569.705 298.509 570.193C297.86 570.681 297.993 571.953 298.807 573.034C299.62 574.116 300.805 574.597 301.454 574.109Z" fill="white"/>
<path d="M306.212 577.134C306.861 576.646 306.728 575.374 305.914 574.292C305.101 573.211 303.915 572.73 303.267 573.218C302.618 573.706 302.751 574.978 303.564 576.06C304.378 577.141 305.563 577.622 306.212 577.134Z" fill="white"/>
<path d="M311.263 580.552C311.912 580.064 311.778 578.792 310.965 577.71C310.152 576.629 308.966 576.148 308.317 576.636C307.669 577.124 307.802 578.396 308.615 579.478C309.429 580.559 310.614 581.04 311.263 580.552Z" fill="white"/>
<path d="M302.064 592.607L319.704 602.407C319.704 602.407 320.194 602.407 320.194 601.917C320.194 601.427 320.194 601.427 319.704 600.937L302.064 591.137C302.064 591.137 301.574 591.137 301.574 591.627C301.574 592.117 302.064 592.117 302.064 592.607Z" fill="#CBCBCB"/>
<path d="M302.064 595.056L319.704 604.856C320.194 604.856 320.194 604.856 320.194 604.366C320.194 603.876 320.194 603.876 319.704 603.386L302.064 593.586C301.574 593.586 301.574 593.586 301.574 594.076C301.574 594.566 302.064 595.056 302.064 595.056Z" fill="#CBCBCB"/>
<path d="M302.064 597.997L319.704 607.797C320.194 607.797 320.194 607.797 320.194 607.307C320.194 606.817 320.194 606.817 319.704 606.327L302.064 596.527C301.574 596.527 301.574 596.527 301.574 597.017C301.574 597.507 302.064 597.997 302.064 597.997Z" fill="#CBCBCB"/>
<path d="M329.034 615.974C331.974 617.444 334.424 616.464 334.424 613.034C334.424 612.544 334.424 612.054 334.424 611.564C334.914 611.564 335.404 611.564 335.894 611.564C335.894 612.544 336.384 613.524 336.384 614.014C336.384 618.424 333.444 620.384 329.524 617.934H329.034V615.974Z" fill="white"/>
<path d="M329.034 603.724C327.074 602.744 325.604 602.744 324.624 603.724L323.154 601.764C324.624 600.294 326.584 599.804 329.034 601.274C331.974 603.234 334.914 606.664 335.894 610.584C335.404 610.584 334.914 610.584 334.424 610.584C333.444 608.624 331.484 605.194 329.034 603.724Z" fill="url(#paint10_linear_45_1006)"/>
<path d="M322.174 605.684C322.174 604.214 322.664 602.744 323.154 602.254L324.624 604.214C324.134 604.704 323.644 605.684 323.644 607.154C323.644 610.094 325.604 614.014 328.544 615.974V617.934C325.114 615.484 322.174 610.094 322.174 605.684Z" fill="url(#paint11_linear_45_1006)"/>
<path d="M367.651 655.131V653.661L357.361 647.291V648.761L367.651 655.131Z" fill="#C7E3FC"/>
<path d="M335.801 651.212C339.721 650.232 344.131 649.252 346.581 651.702C347.561 652.682 348.051 653.662 348.541 654.642C351.971 659.542 358.831 660.032 365.201 659.052C371.081 658.072 377.451 656.112 383.331 657.092C387.741 658.072 391.661 660.522 395.581 662.482C399.501 664.442 404.401 665.912 408.811 664.442" stroke="url(#paint12_linear_45_1006)" stroke-width="0.25" stroke-miterlimit="10"/>
<path d="M394.601 670.811L389.211 667.381V703.641L394.601 707.071V670.811Z" fill="url(#paint13_linear_45_1006)"/>
<path d="M350.501 663.952L345.111 660.521V677.181L350.501 680.612V663.952Z" fill="url(#paint14_linear_45_1006)"/>
<path d="M342.171 664.93L336.781 661.5V671.79L342.171 675.22V664.93Z" fill="url(#paint15_linear_45_1006)"/>
<path d="M384.8 674.241L379.41 670.811V697.271L384.8 700.701V674.241Z" fill="url(#paint16_linear_45_1006)"/>
<path d="M374.511 672.772L369.121 669.342V691.392L374.511 694.822V672.772Z" fill="url(#paint17_linear_45_1006)"/>
<path d="M363.242 664.93L357.852 661.5V684.04L363.242 687.47V664.93Z" fill="url(#paint18_linear_45_1006)"/>
<path d="M311.728 625.368L301.928 619.488V620.958L311.728 626.838V625.368Z" fill="#CBCBCB"/>
<path d="M311.728 628.798L301.928 622.918V624.388L311.728 630.268V628.798Z" fill="#CBCBCB"/>
<path d="M311.728 621.448L301.928 615.568V617.038L311.728 622.918V621.448Z" fill="#CBCBCB"/>
<path d="M305.358 628.308L301.928 626.348V627.818L305.358 629.778V628.308Z" fill="#CBCBCB"/>
<path d="M316.137 636.638C315.647 636.148 315.647 636.638 316.137 636.638V624.388C316.137 624.388 316.137 623.898 316.627 623.898L317.117 624.388L316.137 636.638Z" fill="#C9D1D6"/>
<path d="M324.957 629.779C322.017 627.819 320.057 629.289 319.567 632.229C319.077 635.169 321.527 639.579 324.467 641.049C327.407 643.009 329.367 641.539 329.857 638.599C330.347 635.659 327.407 631.739 324.957 629.779ZM324.467 640.069C322.507 638.599 320.547 635.659 321.037 633.209C321.527 630.759 322.997 629.779 324.957 631.249C326.917 632.719 328.877 635.659 328.387 638.109C327.897 640.559 326.427 641.539 324.467 640.069Z" fill="#CBCBCB"/>
<path d="M328.877 649.378L301.437 631.738C301.437 631.738 300.947 631.248 301.437 631.248H301.927L329.367 648.398C329.367 648.888 329.367 648.888 328.877 649.378Z" fill="#C9D1D6"/>
<path d="M328.387 638.109C328.387 639.579 327.898 640.559 326.918 640.559C326.918 640.559 326.428 641.049 326.918 641.539C326.918 642.029 327.408 642.519 327.898 642.029C329.368 641.539 329.858 640.559 330.348 638.599C330.348 635.659 328.878 632.229 326.428 630.269C325.938 629.779 325.938 630.269 325.938 630.269C325.938 630.759 325.938 630.759 326.428 631.249C327.408 633.209 328.387 635.659 328.387 638.109Z" fill="url(#paint19_linear_45_1006)"/>
<path d="M301.437 647.932L300.947 647.442V644.502L301.437 644.992V647.932Z" fill="url(#paint20_linear_45_1006)"/>
<path d="M302.418 648.422L301.928 647.932V644.992L302.418 645.482V648.422Z" fill="url(#paint21_linear_45_1006)"/>
<path d="M303.398 648.912L302.908 648.422V645.482L303.398 645.972V648.912Z" fill="url(#paint22_linear_45_1006)"/>
<path d="M304.377 649.893L303.887 649.403V646.463L304.377 646.953V649.893Z" fill="url(#paint23_linear_45_1006)"/>
<path d="M304.867 650.381L304.377 649.891V646.951L304.867 647.441V650.381Z" fill="url(#paint24_linear_45_1006)"/>
<path d="M305.847 650.871L305.357 650.381V647.441L305.847 647.931V650.871Z" fill="url(#paint25_linear_45_1006)"/>
<path d="M306.828 651.362L306.338 650.872V647.932L306.828 648.422V651.362Z" fill="url(#paint26_linear_45_1006)"/>
<path d="M307.806 651.852L307.316 651.362V648.422L307.806 648.912V651.852Z" fill="url(#paint27_linear_45_1006)"/>
<path d="M308.297 652.342L307.807 651.852V648.912L308.297 649.402V652.342Z" fill="url(#paint28_linear_45_1006)"/>
<path d="M309.277 652.832L308.787 652.342V649.402L309.277 649.892V652.832Z" fill="url(#paint29_linear_45_1006)"/>
<path d="M310.258 653.322L309.768 652.833V649.893L310.258 650.383V653.322Z" fill="url(#paint30_linear_45_1006)"/>
<path d="M311.238 653.813L310.748 653.323V650.383L311.238 650.873V653.813Z" fill="url(#paint31_linear_45_1006)"/>
<path d="M311.726 654.791L311.236 654.301V651.361L311.726 651.851V654.791Z" fill="url(#paint32_linear_45_1006)"/>
<path d="M312.707 655.282L312.217 654.792V651.852L312.707 652.342V655.282Z" fill="url(#paint33_linear_45_1006)"/>
<path d="M313.687 655.772L313.197 655.282V652.342L313.687 652.832V655.772Z" fill="url(#paint34_linear_45_1006)"/>
<path d="M314.668 656.262L314.178 655.772V652.832L314.668 653.322V656.262Z" fill="url(#paint35_linear_45_1006)"/>
<path d="M315.648 656.752L315.158 656.262V653.322L315.648 653.812V656.752Z" fill="url(#paint36_linear_45_1006)"/>
<path d="M316.136 657.243L315.646 656.753V653.812L316.136 654.303V657.243Z" fill="url(#paint37_linear_45_1006)"/>
<path d="M317.117 657.733L316.627 657.243V654.303L317.117 654.793V657.733Z" fill="url(#paint38_linear_45_1006)"/>
<path d="M318.097 658.221L317.607 657.731V654.791L318.097 655.281V658.221Z" fill="url(#paint39_linear_45_1006)"/>
<path d="M319.078 658.711L318.588 658.221V655.281L319.078 655.771V658.711Z" fill="url(#paint40_linear_45_1006)"/>
<path d="M319.568 659.692L319.078 659.202V656.262L319.568 656.752V659.692Z" fill="url(#paint41_linear_45_1006)"/>
<path d="M320.547 660.182L320.057 659.692V656.752L320.547 657.242V660.182Z" fill="url(#paint42_linear_45_1006)"/>
<path d="M321.527 660.672L321.037 660.182V657.242L321.527 657.732V660.672Z" fill="url(#paint43_linear_45_1006)"/>
<path d="M322.508 661.162L322.018 660.672V657.732L322.508 658.222V661.162Z" fill="#CBCBCB"/>
<path d="M322.998 661.653L322.508 661.163V658.223L322.998 658.713V661.653Z" fill="#CBCBCB"/>
<path d="M323.976 662.143L323.486 661.653V658.713L323.976 659.203V662.143Z" fill="#CBCBCB"/>
<path d="M324.957 662.631L324.467 662.141V659.201L324.957 659.691V662.631Z" fill="#CBCBCB"/>
<path d="M325.937 663.121L325.447 662.631V659.691L325.937 660.181V663.121Z" fill="#CBCBCB"/>
<path d="M326.918 663.612L326.428 663.122V660.182L326.918 660.672V663.612Z" fill="#CBCBCB"/>
<path d="M327.408 664.592L326.918 664.102V661.162L327.408 661.652V664.592Z" fill="#CBCBCB"/>
<path d="M328.386 665.082L327.896 664.592V661.652L328.386 662.142V665.082Z" fill="#CBCBCB"/>
<path d="M321.528 664.102L321.038 661.652L320.058 663.122L318.098 662.142V666.062L322.998 669.002V665.082L321.528 664.102Z" fill="#F9346C"/>
<path d="M310.748 642.028L301.438 636.148V638.598L310.748 644.478V642.028Z" fill="#CBCBCB"/>
<path d="M135.18 624.51C135.18 628.43 136.65 631.37 138.61 632.35L144 635.29C144 635.29 197.9 595.11 197.9 588.25C197.9 588.25 197.9 585.8 197.41 584.33C198.39 583.84 199.86 583.35 199.86 583.35C198.88 582.86 195.94 580.9 194.47 580.41C192.51 579.92 189.08 580.9 188.1 581.39C188.1 579.92 187.61 578.45 187.12 577.47L189.57 576.98L184.67 574.04C182.71 573.06 180.26 573.06 177.81 574.53C176.34 575.51 175.36 576.49 174.38 577.47C174.38 577.47 171.93 576 170.46 575.02C168.99 574.04 167.52 574.04 166.05 574.04C165.56 574.04 165.07 574.04 164.58 574.04C164.09 574.04 164.09 574.04 163.6 574.04C162.13 574.53 160.66 575.02 159.19 576C153.31 579.43 147.92 586.29 144.98 594.62C143.02 599.52 141.55 605.89 142.04 609.32C136.16 615.2 135.18 619.12 135.18 624.51Z" fill="url(#paint44_linear_45_1006)"/>
<path d="M141.061 627.941C141.061 634.801 145.471 638.231 150.861 635.291C150.861 635.291 151.351 635.291 151.351 634.801L193.98 609.811C193.98 609.811 194.471 609.811 194.471 609.321C199.861 606.381 203.78 598.051 203.78 591.191C203.78 584.331 199.37 580.901 193.98 583.841C193.98 583.841 193.981 583.841 193.491 583.841C193.001 576.491 188.591 573.551 182.711 576.981C181.241 577.961 179.771 579.431 178.301 580.901C175.361 576.491 169.971 575.511 164.091 578.941C154.781 584.331 146.941 599.031 147.431 611.771C143.511 616.181 141.061 622.551 141.061 627.941Z" fill="#F3F8FE"/>
<path d="M193.979 609.321C199.369 606.381 203.289 598.051 203.289 591.191C203.289 584.331 198.879 580.901 193.489 583.841C193.489 583.841 193.489 583.841 192.999 583.841C192.509 576.491 188.099 573.551 182.219 576.981C180.749 577.961 179.279 579.431 177.809 580.901C174.869 576.491 169.479 575.511 163.599 578.941L163.109 579.431L185.649 614.221L192.999 609.811C193.489 609.811 193.979 609.811 193.979 609.321Z" fill="url(#paint45_linear_45_1006)"/>
<path d="M538.451 643.62C538.451 646.07 537.471 647.54 536.491 648.03L533.551 649.99C533.551 649.99 501.701 626.47 501.701 622.06C501.701 622.06 501.701 620.59 502.191 619.61C501.701 619.61 500.721 619.12 500.721 619.12C501.211 618.63 503.171 617.65 503.661 617.16C504.641 616.67 507.091 617.16 507.581 617.65C507.581 616.67 507.581 616.18 508.071 615.2L506.601 614.71L509.541 612.75C510.521 612.26 511.991 612.26 513.951 613.24C514.931 613.73 515.421 614.22 515.911 615.2C515.911 615.2 517.381 614.22 518.361 613.73C519.341 613.24 520.321 613.24 521.301 613.24C521.791 613.24 521.791 613.24 522.281 613.24H522.771C523.751 613.24 524.731 613.73 525.221 614.22C528.651 616.18 532.081 620.59 533.551 625C534.531 627.94 535.511 631.37 535.021 633.82C537.471 638.23 538.451 640.19 538.451 643.62Z" fill="url(#paint46_linear_45_1006)"/>
<path d="M535.021 645.579C535.021 649.499 532.571 651.459 529.141 649.989C529.141 649.989 529.141 649.989 528.651 649.989L503.661 635.289C503.661 635.289 503.661 635.289 503.171 635.289C500.231 633.329 497.781 628.429 497.781 624.509C497.781 620.589 500.231 618.629 503.661 620.099C503.661 615.689 506.601 613.729 510.031 615.689C511.011 616.179 511.991 617.159 512.481 617.649C514.441 615.199 517.381 614.219 520.811 616.669C526.201 620.099 531.101 628.919 530.611 636.269C533.551 638.719 535.021 642.149 535.021 645.579Z" fill="#F3F8FE"/>
<path d="M503.662 634.799C500.722 632.839 498.271 627.939 498.271 624.019C498.271 620.099 500.722 618.139 504.152 619.609C504.152 615.199 507.091 613.239 510.521 615.199C511.501 615.689 512.481 616.669 512.971 617.159C514.931 614.709 517.872 613.729 521.302 616.179C521.302 616.179 521.302 616.179 521.792 616.669L508.562 637.249L503.662 634.799Z" fill="url(#paint47_linear_45_1006)"/>
<defs>
<linearGradient id="paint0_linear_45_1006" x1="110.358" y1="909.542" x2="569.18" y2="909.542" gradientUnits="userSpaceOnUse">
<stop stop-color="#92A6F1"/>
<stop offset="1" stop-color="white"/>
</linearGradient>
<linearGradient id="paint1_linear_45_1006" x1="186.743" y1="810.747" x2="492.797" y2="810.747" gradientUnits="userSpaceOnUse">
<stop offset="0.3375" stop-color="#97B5E1"/>
<stop offset="0.5932" stop-color="#E8F1FF"/>
</linearGradient>
<linearGradient id="paint2_linear_45_1006" x1="491.622" y1="720.359" x2="187.918" y2="692.791" gradientUnits="userSpaceOnUse">
<stop stop-color="white"/>
<stop offset="1" stop-color="#C9D9F4"/>
</linearGradient>
<linearGradient id="paint3_linear_45_1006" x1="217.431" y1="771.499" x2="211.992" y2="762.08" gradientUnits="userSpaceOnUse">
<stop stop-color="#103DB5"/>
<stop offset="0.6426" stop-color="#6BABFD"/>
</linearGradient>
<linearGradient id="paint4_linear_45_1006" x1="233.505" y1="780.7" x2="228.066" y2="771.281" gradientUnits="userSpaceOnUse">
<stop stop-color="#103DB5"/>
<stop offset="0.6426" stop-color="#6BABFD"/>
</linearGradient>
<linearGradient id="paint5_linear_45_1006" x1="250.12" y1="809.108" x2="226.946" y2="841.621" gradientUnits="userSpaceOnUse">
<stop stop-color="#0CFFFC" stop-opacity="0.6"/>
<stop offset="1" stop-color="white" stop-opacity="0"/>
</linearGradient>
<linearGradient id="paint6_linear_45_1006" x1="-18.942" y1="626.839" x2="107.901" y2="626.839" gradientUnits="userSpaceOnUse">
<stop stop-color="#E5EDF6"/>
<stop offset="1" stop-color="#F0F5FA"/>
</linearGradient>
<linearGradient id="paint7_linear_45_1006" x1="-95.599" y1="699.716" x2="105.028" y2="699.716" gradientUnits="userSpaceOnUse">
<stop stop-color="#E5EDF6"/>
<stop offset="1" stop-color="#F0F5FA"/>
</linearGradient>
<linearGradient id="paint8_linear_45_1006" x1="-49.558" y1="722.894" x2="-17.9768" y2="722.894" gradientUnits="userSpaceOnUse">
<stop stop-color="#E5EDF6"/>
<stop offset="1" stop-color="#F0F5FA"/>
</linearGradient>
<linearGradient id="paint9_linear_45_1006" x1="295.47" y1="603.916" x2="412.987" y2="603.916" gradientUnits="userSpaceOnUse">
<stop stop-color="#103DB5"/>
<stop offset="1" stop-color="#6BABFD"/>
</linearGradient>
<linearGradient id="paint10_linear_45_1006" x1="337.203" y1="603.686" x2="326.826" y2="607.404" gradientUnits="userSpaceOnUse">
<stop stop-color="#FF8000"/>
<stop offset="1" stop-color="#FFD000"/>
</linearGradient>
<linearGradient id="paint11_linear_45_1006" x1="327.118" y1="604.941" x2="324.611" y2="613.674" gradientUnits="userSpaceOnUse">
<stop stop-color="#FF8000"/>
<stop offset="1" stop-color="#FFD000"/>
</linearGradient>
<linearGradient id="paint12_linear_45_1006" x1="335.748" y1="657.645" x2="409.106" y2="657.645" gradientUnits="userSpaceOnUse">
<stop stop-color="#FF8000"/>
<stop offset="1" stop-color="#FFD000"/>
</linearGradient>
<linearGradient id="paint13_linear_45_1006" x1="392.124" y1="819.218" x2="392.124" y2="870.824" gradientUnits="userSpaceOnUse">
<stop stop-color="#FF8000"/>
<stop offset="1" stop-color="#FFD000"/>
</linearGradient>
<linearGradient id="paint14_linear_45_1006" x1="348.065" y1="847.053" x2="348.065" y2="870.538" gradientUnits="userSpaceOnUse">
<stop stop-color="#FF8000"/>
<stop offset="1" stop-color="#FFD000"/>
</linearGradient>
<linearGradient id="paint15_linear_45_1006" x1="339.386" y1="855.826" x2="339.386" y2="870.432" gradientUnits="userSpaceOnUse">
<stop stop-color="#FF8000"/>
<stop offset="1" stop-color="#FFD000"/>
</linearGradient>
<linearGradient id="paint16_linear_45_1006" x1="381.914" y1="841.958" x2="381.914" y2="870.363" gradientUnits="userSpaceOnUse">
<stop stop-color="#FF8000"/>
<stop offset="1" stop-color="#FFD000"/>
</linearGradient>
<linearGradient id="paint17_linear_45_1006" x1="371.954" y1="846.601" x2="371.954" y2="870.053" gradientUnits="userSpaceOnUse">
<stop stop-color="#FF8000"/>
<stop offset="1" stop-color="#FFD000"/>
</linearGradient>
<linearGradient id="paint18_linear_45_1006" x1="360.224" y1="853.937" x2="360.224" y2="869.903" gradientUnits="userSpaceOnUse">
<stop stop-color="#FF8000"/>
<stop offset="1" stop-color="#FFD000"/>
</linearGradient>
<linearGradient id="paint19_linear_45_1006" x1="-1521.25" y1="-3082.03" x2="-1511.39" y2="-3078.9" gradientUnits="userSpaceOnUse">
<stop stop-color="#2500E9"/>
<stop offset="0.524" stop-color="#9987F4"/>
<stop offset="1" stop-color="white"/>
</linearGradient>
<linearGradient id="paint20_linear_45_1006" x1="298.584" y1="644.526" x2="316.439" y2="656.109" gradientUnits="userSpaceOnUse">
<stop stop-color="#FF8000"/>
<stop offset="1" stop-color="#FFD000"/>
</linearGradient>
<linearGradient id="paint21_linear_45_1006" x1="298.592" y1="644.514" x2="316.448" y2="656.103" gradientUnits="userSpaceOnUse">
<stop stop-color="#FF8000"/>
<stop offset="1" stop-color="#FFD000"/>
</linearGradient>
<linearGradient id="paint22_linear_45_1006" x1="298.599" y1="644.503" x2="316.456" y2="656.091" gradientUnits="userSpaceOnUse">
<stop stop-color="#FF8000"/>
<stop offset="1" stop-color="#FFD000"/>
</linearGradient>
<linearGradient id="paint23_linear_45_1006" x1="298.606" y1="644.492" x2="316.462" y2="656.079" gradientUnits="userSpaceOnUse">
<stop stop-color="#FF8000"/>
<stop offset="1" stop-color="#FFD000"/>
</linearGradient>
<linearGradient id="paint24_linear_45_1006" x1="298.614" y1="644.478" x2="316.47" y2="656.066" gradientUnits="userSpaceOnUse">
<stop stop-color="#FF8000"/>
<stop offset="1" stop-color="#FFD000"/>
</linearGradient>
<linearGradient id="paint25_linear_45_1006" x1="298.621" y1="644.467" x2="316.478" y2="656.055" gradientUnits="userSpaceOnUse">
<stop stop-color="#FF8000"/>
<stop offset="1" stop-color="#FFD000"/>
</linearGradient>
<linearGradient id="paint26_linear_45_1006" x1="298.629" y1="644.455" x2="316.486" y2="656.043" gradientUnits="userSpaceOnUse">
<stop stop-color="#FF8000"/>
<stop offset="1" stop-color="#FFD000"/>
</linearGradient>
<linearGradient id="paint27_linear_45_1006" x1="298.636" y1="644.443" x2="316.492" y2="656.031" gradientUnits="userSpaceOnUse">
<stop stop-color="#FF8000"/>
<stop offset="1" stop-color="#FFD000"/>
</linearGradient>
<linearGradient id="paint28_linear_45_1006" x1="298.644" y1="644.432" x2="316.5" y2="656.02" gradientUnits="userSpaceOnUse">
<stop stop-color="#FF8000"/>
<stop offset="1" stop-color="#FFD000"/>
</linearGradient>
<linearGradient id="paint29_linear_45_1006" x1="298.651" y1="644.42" x2="316.509" y2="656.008" gradientUnits="userSpaceOnUse">
<stop stop-color="#FF8000"/>
<stop offset="1" stop-color="#FFD000"/>
</linearGradient>
<linearGradient id="paint30_linear_45_1006" x1="298.66" y1="644.409" x2="316.516" y2="655.997" gradientUnits="userSpaceOnUse">
<stop stop-color="#FF8000"/>
<stop offset="1" stop-color="#FFD000"/>
</linearGradient>
<linearGradient id="paint31_linear_45_1006" x1="298.671" y1="644.398" x2="316.525" y2="655.981" gradientUnits="userSpaceOnUse">
<stop stop-color="#FF8000"/>
<stop offset="1" stop-color="#FFD000"/>
</linearGradient>
<linearGradient id="paint32_linear_45_1006" x1="298.673" y1="644.384" x2="316.53" y2="655.972" gradientUnits="userSpaceOnUse">
<stop stop-color="#FF8000"/>
<stop offset="1" stop-color="#FFD000"/>
</linearGradient>
<linearGradient id="paint33_linear_45_1006" x1="298.681" y1="644.373" x2="316.538" y2="655.961" gradientUnits="userSpaceOnUse">
<stop stop-color="#FF8000"/>
<stop offset="1" stop-color="#FFD000"/>
</linearGradient>
<linearGradient id="paint34_linear_45_1006" x1="298.694" y1="644.361" x2="316.548" y2="655.944" gradientUnits="userSpaceOnUse">
<stop stop-color="#FF8000"/>
<stop offset="1" stop-color="#FFD000"/>
</linearGradient>
<linearGradient id="paint35_linear_45_1006" x1="298.697" y1="644.35" x2="316.553" y2="655.939" gradientUnits="userSpaceOnUse">
<stop stop-color="#FF8000"/>
<stop offset="1" stop-color="#FFD000"/>
</linearGradient>
<linearGradient id="paint36_linear_45_1006" x1="298.705" y1="644.338" x2="316.562" y2="655.927" gradientUnits="userSpaceOnUse">
<stop stop-color="#FF8000"/>
<stop offset="1" stop-color="#FFD000"/>
</linearGradient>
<linearGradient id="paint37_linear_45_1006" x1="298.716" y1="644.327" x2="316.571" y2="655.91" gradientUnits="userSpaceOnUse">
<stop stop-color="#FF8000"/>
<stop offset="1" stop-color="#FFD000"/>
</linearGradient>
<linearGradient id="paint38_linear_45_1006" x1="298.719" y1="644.315" x2="316.576" y2="655.903" gradientUnits="userSpaceOnUse">
<stop stop-color="#FF8000"/>
<stop offset="1" stop-color="#FFD000"/>
</linearGradient>
<linearGradient id="paint39_linear_45_1006" x1="298.728" y1="644.302" x2="316.584" y2="655.89" gradientUnits="userSpaceOnUse">
<stop stop-color="#FF8000"/>
<stop offset="1" stop-color="#FFD000"/>
</linearGradient>
<linearGradient id="paint40_linear_45_1006" x1="298.735" y1="644.291" x2="316.592" y2="655.879" gradientUnits="userSpaceOnUse">
<stop stop-color="#FF8000"/>
<stop offset="1" stop-color="#FFD000"/>
</linearGradient>
<linearGradient id="paint41_linear_45_1006" x1="298.743" y1="644.279" x2="316.6" y2="655.867" gradientUnits="userSpaceOnUse">
<stop stop-color="#FF8000"/>
<stop offset="1" stop-color="#FFD000"/>
</linearGradient>
<linearGradient id="paint42_linear_45_1006" x1="298.749" y1="644.268" x2="316.606" y2="655.855" gradientUnits="userSpaceOnUse">
<stop stop-color="#FF8000"/>
<stop offset="1" stop-color="#FFD000"/>
</linearGradient>
<linearGradient id="paint43_linear_45_1006" x1="298.757" y1="644.257" x2="316.614" y2="655.845" gradientUnits="userSpaceOnUse">
<stop stop-color="#FF8000"/>
<stop offset="1" stop-color="#FFD000"/>
</linearGradient>
<linearGradient id="paint44_linear_45_1006" x1="124.129" y1="626.563" x2="178.317" y2="585.057" gradientUnits="userSpaceOnUse">
<stop stop-color="#97B5E1"/>
<stop offset="1" stop-color="#ECF1FA"/>
</linearGradient>
<linearGradient id="paint45_linear_45_1006" x1="206.546" y1="606.005" x2="155.529" y2="577.124" gradientUnits="userSpaceOnUse">
<stop stop-color="white"/>
<stop offset="1" stop-color="#C9D9F4"/>
</linearGradient>
<linearGradient id="paint46_linear_45_1006" x1="544.876" y1="644.834" x2="512.837" y2="620.294" gradientUnits="userSpaceOnUse">
<stop stop-color="#97B5E1"/>
<stop offset="1" stop-color="#ECF1FA"/>
</linearGradient>
<linearGradient id="paint47_linear_45_1006" x1="496.148" y1="632.679" x2="526.311" y2="615.603" gradientUnits="userSpaceOnUse">
<stop stop-color="white"/>
<stop offset="1" stop-color="#C9D9F4"/>
</linearGradient>
</defs>
</svg>
